<svg width="36" height="34" viewBox="0 0 36 34" fill="none" xmlns="http://www.w3.org/2000/svg">
<path d="M21.8297 9.26381C20.946 9.81965 19.6918 10.6891 18.0029 11.7651C16.5599 12.6743 15.1725 13.669 13.8483 14.7439C13.2711 15.3425 12.815 16.8817 11.7532 18.1787C11.0707 19.0322 10.307 19.8174 9.47279 20.5232C10.2787 20.368 11.0508 20.0713 11.7532 19.6467C12.6542 19.1247 13.4573 18.4495 14.1262 17.6514C14.4177 17.1891 14.7391 16.7463 15.0883 16.3259C15.9292 15.5278 18.8723 14.3306 20.6681 13.7605C22.4639 13.1904 22.8772 13.5395 24.6588 13.2046C25.496 13.115 26.3098 12.8735 27.0603 12.492L28.3787 8.42291L21.8297 10.8387V9.26381Z" fill="#E24329"/>
<path d="M28.3787 13.5182L25.8774 17.8794H23.882L18.402 16.7749V16.0622L20.946 14.5515L22.8131 14.2522L28.3787 13.5182ZM16.1786 17.9222L15.9577 20.1242L14.7961 20.4662L13.5775 20.06L16.1786 17.9222Z" fill="#FC6D26"/>
<path d="M9.4728 20.9651C9.35376 21.1847 9.28557 21.4282 9.27327 21.6777C9.27327 21.9984 8.42525 22.1765 8.42525 23.1813C8.4597 23.609 8.59941 24.0215 8.83191 24.3821C9.06442 24.7426 9.38252 25.0401 9.75785 25.2479L11.518 26.381C11.3343 25.9972 11.2509 25.573 11.2757 25.1482C11.272 24.9515 11.3226 24.7577 11.4219 24.588C11.5212 24.4182 11.6655 24.2792 11.8387 24.1861C12.3162 23.8084 16.6632 23.0531 17.9601 23.2383C18.8869 23.4022 19.7322 23.8713 20.3617 24.5709L26.2408 20.2524L24.7229 18.87H23.7253L22.3428 18.2072H18.345L16.6632 21.7205C14.4208 21.6112 13.0739 21.5304 12.6226 21.4782C12.1665 21.4212 11.1261 21.2715 9.4728 20.9651Z" fill="#FCA326"/>
</svg>
